<?xml version="1.0" encoding="UTF-8"?>
<svg width="44px" height="44px" viewBox="0 0 44 44" version="1.1" xmlns="http://www.w3.org/2000/svg" xmlns:xlink="http://www.w3.org/1999/xlink">
    <!-- Generator: Sketch 52.2 (67145) - http://www.bohemiancoding.com/sketch -->
    <title>Artboard</title>
    <desc>Created with Sketch.</desc>
    <g id="Artboard" stroke="none" stroke-width="1" fill="none" fill-rule="evenodd">
        <g id="删除">
            <g id="Group">
                <rect id="Rectangle" fill="#000000" opacity="0" x="0" y="0" width="44" height="44"></rect>
                <path d="M23.6136704,21.9802138 L35.2918957,10.4031178 C35.5293295,10.165684 35.6480464,9.85789943 35.6480464,9.54571797 C35.6480464,9.23353651 35.5293295,8.92575196 35.2918957,8.68831816 C34.8170281,8.21345057 34.0519636,8.21345057 33.5770961,8.68831816 L21.890077,20.2742081 L10.2030579,8.68831816 C9.72819027,8.21345057 8.96312583,8.21345057 8.48825824,8.68831816 C8.25082444,8.92575196 8.13210754,9.23353651 8.13210754,9.54571797 C8.13210754,9.85789943 8.25082444,10.165684 8.48825824,10.4031178 L20.1664835,21.9802138 L8.48825824,33.5573099 C8.25082444,33.7947437 8.13210754,34.1025282 8.13210754,34.4147097 C8.13210754,34.7268912 8.25082444,35.0346757 8.48825824,35.2721095 C8.72569204,35.5095433 9.03347659,35.6282602 9.34565805,35.6282602 C9.65783951,35.6282602 9.96562407,35.5095433 10.2030579,35.2721095 L21.890077,23.6862196 L33.5770961,35.2721095 C33.8145298,35.5095433 34.1223144,35.6282602 34.4344959,35.6282602 C34.7466773,35.6282602 35.0544619,35.5095433 35.2918957,35.2721095 C35.5293295,35.0346757 35.6480464,34.7268912 35.6480464,34.4147097 C35.6480464,34.1025282 35.5293295,33.7947437 35.2918957,33.5573099 L23.6136704,21.9802138 Z" id="Path" fill="#0D5BE8"></path>
            </g>
        </g>
    </g>
</svg>