<?xml version="1.0" encoding="UTF-8"?>
<svg width="315px" height="366px" viewBox="0 0 315 366" version="1.1" xmlns="http://www.w3.org/2000/svg" xmlns:xlink="http://www.w3.org/1999/xlink">
    <!-- Generator: Sketch 52.2 (67145) - http://www.bohemiancoding.com/sketch -->
    <title>Group 2</title>
    <desc>Created with Sketch.</desc>
    <defs>
        <linearGradient x1="50%" y1="0%" x2="50%" y2="100%" id="linearGradient-1">
            <stop stop-color="#FAD961" offset="0%"></stop>
            <stop stop-color="#F76B1C" offset="100%"></stop>
        </linearGradient>
        <path d="M1.46549439e-14,1.00000054 C1.45072477e-14,0.739308286 0.10180247,0.488921631 0.283715777,0.302191885 C0.669104853,-0.0934009672 1.3022158,-0.101672763 1.69780865,0.283716313 L160.92832,155.407359 C160.928366,155.407403 160.928411,155.407448 160.928456,155.407492 C161.324122,155.792806 161.957231,155.784414 162.342545,155.388748 L313.283583,0.392230426 C313.471824,0.198932333 313.730188,0.0899031995 314,0.0899031995 C314.552285,0.0899031995 315,0.53761845 315,1.0899032 L315,365.039558 C315,365.304747 314.894665,365.559077 314.707162,365.746609 C314.316668,366.137164 313.683503,366.137213 313.292949,365.74672 L33.1578947,85.6555416 L33.1578947,362.309416 C33.1578947,362.861701 32.7101795,363.309416 32.1578947,363.309416 L1,363.309416 C0.44771525,363.309416 6.76353751e-17,362.861701 0,362.309416 L7.31467756e-15,1.00000054 Z M187,180.309416 L278,275.309416 L278,85.3094161 L187,180.309416 Z" id="path-2"></path>
    </defs>
    <g id="Page-1" stroke="none" stroke-width="1" fill="none" fill-rule="evenodd">
        <g id="Artboard" transform="translate(-242.000000, -217.000000)">
            <g id="Group-2" transform="translate(242.000000, 217.000000)">
                <mask id="mask-3" fill="white">
                    <use xlink:href="#path-2"></use>
                </mask>
                <use id="Combined-Shape" fill="url(#linearGradient-1)" xlink:href="#path-2"></use>
                <g id="Group" mask="url(#mask-3)">
                    <g transform="translate(0.000000, -2.000000)">
                        <rect id="Rectangle-Copy-2" fill="#95DDD9" x="0" y="0" width="315" height="94"></rect>
                        <rect id="Rectangle-Copy-3" fill="#80D7D2" x="0" y="90" width="315" height="94"></rect>
                        <rect id="Rectangle-Copy-4" fill="#66D0CA" x="0" y="183" width="315" height="94"></rect>
                        <rect id="Rectangle-Copy-5" fill="#56CBC5" x="0" y="274" width="315" height="94"></rect>
                    </g>
                </g>
            </g>
        </g>
    </g>
</svg>